<svg width="318" height="318" viewBox="0 0 318 318" fill="none" xmlns="http://www.w3.org/2000/svg">
<path d="M306.5 0C312.851 0 318 5.14873 318 11.5V134.429C318 137.479 316.788 140.404 314.632 142.561L281.5 175.692V270C281.5 276.351 276.351 281.5 270 281.5H175.693L142.561 314.632C140.404 316.788 137.479 318 134.429 318H11.5C5.14873 318 0 312.851 0 306.5V183.571C0 180.521 1.21157 177.596 3.36816 175.439L36.5 142.307V48C36.5 41.6487 41.6487 36.5 48 36.5H142.307L175.439 3.36816L175.853 2.97461C177.962 1.06457 180.712 0 183.571 0H306.5ZM149.597 47.5967L47.5967 149.597L13 184.192V305H133.808L168.403 270.403L305 133.807V13H184.192L149.597 47.5967ZM283 23.5C289.351 23.5 294.5 28.6487 294.5 35V125.429C294.5 128.479 293.288 131.404 291.132 133.561L132.561 292.132C130.404 294.288 127.479 295.5 124.429 295.5H34C27.6487 295.5 22.5 290.351 22.5 284V193.571C22.5 190.521 23.7116 187.596 25.8682 185.439L184.439 26.8682L184.853 26.4746C186.962 24.5646 189.712 23.5 192.571 23.5H283ZM35.5 194.192V282.5H123.808L281.5 124.808V36.5H193.192L35.5 194.192ZM256 201.193V244.5C256 250.851 250.851 256 244.5 256H201.193L188.693 268.5H268.5V188.693L256 201.193ZM214.193 243H243V214.193L214.193 243ZM188.172 166.184C188.743 164.05 190.936 162.782 193.07 163.354C195.204 163.925 196.471 166.118 195.899 168.252C194.188 174.643 190.825 180.471 186.147 185.15C181.47 189.829 175.643 193.195 169.252 194.908C162.862 196.621 156.133 196.621 149.742 194.909C143.351 193.197 137.523 189.833 132.845 185.154L132.844 185.153L126.688 178.992V189.713C126.688 191.922 124.898 193.713 122.688 193.713C120.479 193.713 118.688 191.922 118.688 189.713V169.329C118.688 167.12 120.479 165.329 122.688 165.329H143.072C145.281 165.329 147.072 167.12 147.072 169.329C147.072 171.538 145.281 173.329 143.072 173.329H132.339L138.502 179.498L138.85 179.84C142.474 183.347 146.935 185.875 151.812 187.182C156.846 188.53 162.147 188.53 167.181 187.181C172.215 185.831 176.806 183.18 180.49 179.494C184.175 175.808 186.824 171.218 188.172 166.184ZM149.743 122.092C156.134 120.379 162.863 120.379 169.254 122.091C175.645 123.803 181.472 127.167 186.15 131.846H186.151L192.311 138.009V127.287C192.311 125.078 194.102 123.287 196.311 123.287C198.52 123.287 200.311 125.078 200.311 127.287V147.663C200.311 147.676 200.31 147.689 200.31 147.702C200.309 147.742 200.308 147.782 200.307 147.822C200.305 147.87 200.301 147.918 200.298 147.966C200.295 148.001 200.294 148.036 200.29 148.071C200.283 148.142 200.273 148.211 200.263 148.28C200.256 148.322 200.248 148.364 200.24 148.406C200.231 148.454 200.221 148.501 200.21 148.548C200.175 148.702 200.133 148.854 200.079 149.005C200.068 149.037 200.055 149.069 200.043 149.101C200.03 149.134 200.02 149.169 200.006 149.202C199.387 150.696 197.928 151.671 196.311 151.671H175.927C173.718 151.671 171.927 149.88 171.927 147.671C171.927 145.462 173.718 143.671 175.927 143.671H186.658L180.493 137.502C176.808 133.817 172.218 131.166 167.184 129.817C162.149 128.469 156.849 128.47 151.814 129.819C146.781 131.169 142.191 133.819 138.506 137.505C134.821 141.191 132.171 145.782 130.823 150.816C130.252 152.95 128.059 154.217 125.925 153.646C123.791 153.074 122.524 150.881 123.096 148.747C124.807 142.356 128.17 136.529 132.848 131.85C137.525 127.171 143.353 123.805 149.743 122.092ZM49.5 129.307L62 116.807V73.5C62 67.1487 67.1487 62 73.5 62H116.807L129.307 49.5H49.5V129.307ZM75 103.807L103.807 75H75V103.807Z" fill="white"/>
</svg>
