<svg width="140" height="174" viewBox="0 0 140 174" fill="none" xmlns="http://www.w3.org/2000/svg">
<path d="M47.6837 60.852L136.5 35.3622M136.5 91.0404V122.903C136.499 127.057 135.151 131.097 132.661 134.413C130.17 137.729 126.672 140.14 122.695 141.281L111.53 144.484C109.594 145.072 107.561 145.267 105.549 145.058C103.538 144.849 101.587 144.24 99.812 143.267C98.0368 142.293 96.472 140.975 95.2087 139.389C93.9454 137.802 93.0088 135.979 92.4535 134.026C91.8982 132.072 91.7352 130.028 91.9741 128.01C92.2129 125.993 92.8489 124.044 93.8448 122.276C94.8408 120.507 96.1769 118.956 97.7754 117.711C99.3739 116.467 101.203 115.554 103.156 115.026L122.695 109.419C126.672 108.278 130.17 105.867 132.661 102.551C135.151 99.2349 136.499 95.1943 136.5 91.0404ZM136.5 91.0404V3.5L47.6837 28.9898V116.53M47.6837 116.53V148.392C47.6828 152.546 46.3351 156.587 43.8443 159.903C41.3536 163.219 37.8554 165.63 33.8791 166.771L22.7136 169.974C18.8468 171.019 14.7258 170.494 11.2407 168.514C7.75547 166.533 5.18569 163.255 4.08619 159.387C2.98669 155.519 3.44568 151.372 5.36407 147.842C7.28246 144.311 10.5063 141.68 14.3395 140.516L33.8791 134.908C37.8554 133.767 41.3536 131.357 43.8443 128.041C46.3351 124.725 47.6828 120.684 47.6837 116.53Z" stroke="white" stroke-width="7" stroke-linecap="round" stroke-linejoin="round"/>
</svg>
