<svg width="625" height="625" viewBox="0 0 625 625" fill="none" xmlns="http://www.w3.org/2000/svg">
<path d="M613.5 0C619.575 5.6629e-08 624.5 4.92487 624.5 11V613.5C624.5 619.575 619.575 624.5 613.5 624.5H11C4.92487 624.5 2.52293e-06 619.575 0 613.5V11C5.30591e-08 4.92486 4.92488 2.72488e-06 11 0H613.5ZM12 612.5H204.167V533.049C167.769 529.692 128.499 524.214 97.207 515.214C86.029 511.999 76.7342 508.204 70.7275 503.145C67.5836 500.496 64.4565 496.763 63.2334 491.733C61.9356 486.396 63.2287 481.48 65.5029 477.615C69.4607 470.89 77.1372 466.006 84.4561 462.276C92.3834 458.237 102.498 454.307 114.073 450.462C137.701 442.614 169.115 434.586 204.167 426.509V420.333H12V612.5ZM346.718 420.333C336.325 422.533 325.869 424.734 315.435 426.931C281.222 434.134 247.238 441.31 216.167 448.383V510.008C223.997 510.66 231.682 511.22 239.108 511.697C251.698 512.506 263.467 513.077 273.838 513.481L268.389 509.989C262.809 506.413 261.184 498.991 264.76 493.411C268.336 487.831 275.758 486.206 281.338 489.782L322.8 516.353L338.565 526.456L322.8 536.56L281.338 563.13C275.758 566.706 268.336 565.081 264.76 559.501C261.184 553.921 262.809 546.499 268.389 542.923L276.687 537.604C265.254 537.189 251.942 536.572 237.57 535.648C230.672 535.205 223.506 534.691 216.167 534.093V612.5H408.333V420.333H346.718ZM420.333 612.5H612.5V420.333H420.333V612.5ZM204.167 451.145C171.848 458.667 143.248 466.06 121.638 473.238C110.566 476.916 101.738 480.407 95.3525 483.66C93.0097 484.854 91.1258 485.951 89.6494 486.936C92.5404 488.401 97.0696 490.201 103.841 492.148C132.563 500.409 169.212 505.644 204.167 508.943V451.145ZM216.167 423.772C221.244 422.626 226.385 421.48 231.577 420.333H216.167V423.772ZM12 408.333H204.167V216.167H12V408.333ZM408.333 407.004C406.352 407.447 404.362 407.89 402.362 408.333H408.333V407.004ZM420.333 302.499C456.516 304.39 496.186 308.509 527.772 317.071C538.988 320.112 548.294 323.704 554.347 328.516C557.493 331.017 560.764 334.638 562.112 339.656C563.563 345.054 562.262 350.046 559.957 353.917C556.001 360.558 548.292 365.318 541.07 368.915C533.195 372.838 523.128 376.667 511.595 380.426C487.747 388.197 455.889 396.2 420.333 404.298V408.333H612.5V216.167H420.333V302.499ZM216.167 408.333H287.325C295.036 406.702 302.769 405.072 310.489 403.446C344.192 396.35 377.661 389.313 408.333 382.407V325.966C402.483 325.724 396.732 325.536 391.132 325.396C370.151 324.868 351.555 324.99 338.209 325.244C331.539 325.371 326.188 325.531 322.515 325.658C320.678 325.722 319.262 325.777 318.311 325.816C317.835 325.836 317.475 325.853 317.237 325.863C317.119 325.869 317.031 325.872 316.974 325.875C316.945 325.876 316.924 325.877 316.911 325.878C316.905 325.878 316.9 325.878 316.897 325.878C316.896 325.878 316.896 325.879 316.896 325.879V325.878C310.276 326.193 304.654 321.083 304.339 314.463C304.024 307.843 309.134 302.221 315.754 301.905L316.325 313.892C315.754 301.906 315.756 301.905 315.758 301.905C315.759 301.905 315.761 301.905 315.764 301.905C315.769 301.905 315.777 301.905 315.786 301.904C315.805 301.903 315.832 301.902 315.866 301.9C315.935 301.897 316.036 301.893 316.167 301.887C316.429 301.875 316.815 301.858 317.316 301.837C318.319 301.795 319.79 301.738 321.683 301.672C325.468 301.54 330.945 301.378 337.753 301.248C351.362 300.989 370.321 300.865 391.734 301.403C397.111 301.538 402.66 301.716 408.333 301.944V216.167H216.167V408.333ZM420.333 379.678C453.204 372.122 482.283 364.736 504.158 357.607C515.207 354.007 524.012 350.599 530.369 347.433C532.221 346.51 533.78 345.647 535.075 344.855C532.118 343.517 527.741 341.929 521.493 340.235C492.52 332.381 455.317 328.41 420.333 326.533V379.678ZM108.625 269.375C113.75 269.375 118.479 270.229 122.812 271.938C127.188 273.604 130.688 276.229 133.312 279.812C135.979 283.396 137.312 288.062 137.312 293.812C137.312 296.854 136.688 299.604 135.438 302.062C134.229 304.479 132.708 306.583 130.875 308.375C129.042 310.125 127.146 311.583 125.188 312.75C123.271 313.875 121.625 314.688 120.25 315.188C125.583 317.729 129.479 320.333 131.938 323C134.438 325.625 136.042 328.333 136.75 331.125C137.5 333.875 137.875 336.729 137.875 339.688C137.875 343.938 136.667 347.917 134.25 351.625C131.875 355.333 128.396 358.333 123.812 360.625C119.229 362.917 113.646 364.062 107.062 364.062C100.979 364.062 95.7708 362.958 91.4375 360.75C87.1458 358.5 83.8542 355.562 81.5625 351.938C79.2708 348.312 78.125 344.396 78.125 340.188C78.125 337.104 78.6667 334.146 79.75 331.312C80.8333 328.438 82.6042 325.688 85.0625 323.062C87.5625 320.438 90.9167 317.896 95.125 315.438C92.7917 314.312 90.375 312.75 87.875 310.75C85.4167 308.75 83.3333 306.333 81.625 303.5C79.9583 300.625 79.125 297.354 79.125 293.688C79.125 287.896 80.5417 283.229 83.375 279.688C86.25 276.104 89.9375 273.5 94.4375 271.875C98.9375 270.208 103.667 269.375 108.625 269.375ZM102.812 318.625C98.2292 321.458 94.9375 324.667 92.9375 328.25C90.9792 331.833 90 335.417 90 339C90 341.917 90.6875 344.604 92.0625 347.062C93.4375 349.521 95.4583 351.479 98.125 352.938C100.833 354.396 104.125 355.146 108 355.188C111.083 355.188 114.042 354.583 116.875 353.375C119.75 352.125 122.104 350.333 123.938 348C125.771 345.667 126.688 342.833 126.688 339.5C126.688 334.958 125.625 331.417 123.5 328.875C121.417 326.292 118.562 324.271 114.938 322.812C111.354 321.312 107.312 319.917 102.812 318.625ZM108.625 278.125C105.458 278.125 102.5 278.667 99.75 279.75C97 280.792 94.7708 282.438 93.0625 284.688C91.3542 286.938 90.5 289.875 90.5 293.5C90.5 297.458 91.4167 300.542 93.25 302.75C95.0833 304.958 97.625 306.729 100.875 308.062C104.125 309.396 107.875 310.75 112.125 312.125C114.083 311.125 116.125 309.854 118.25 308.312C120.417 306.771 122.25 304.812 123.75 302.438C125.292 300.021 126.062 297.104 126.062 293.688C126.062 290.229 125.312 287.354 123.812 285.062C122.312 282.771 120.25 281.042 117.625 279.875C115 278.708 112 278.125 108.625 278.125ZM12 204.167H204.167V12H12V204.167ZM216.167 204.167H408.333V12H216.167V204.167ZM420.333 204.167H612.5V12H420.333V204.167ZM308.562 68.375C316.354 68.375 322.479 70.3333 326.938 74.25C331.396 78.125 333.625 83.1667 333.625 89.375C333.625 92.2917 333.125 95.1458 332.125 97.9375C331.167 100.729 329.583 103.229 327.375 105.438C325.208 107.646 322.271 109.312 318.562 110.438C323.312 111.604 327.104 113.521 329.938 116.188C332.812 118.854 334.875 121.938 336.125 125.438C337.417 128.938 338.062 132.542 338.062 136.25C338.062 140.667 336.979 144.917 334.812 149C332.646 153.083 329.417 156.458 325.125 159.125C320.833 161.75 315.542 163.062 309.25 163.062C304.958 163.062 300.875 162.375 297 161C293.125 159.583 289.75 157.312 286.875 154.188C284.042 151.062 281.979 146.917 280.688 141.75L290 138.625C291.667 143.625 293.979 147.479 296.938 150.188C299.896 152.854 303.854 154.188 308.812 154.188C313.021 154.188 316.458 153.354 319.125 151.688C321.792 149.979 323.75 147.75 325 145C326.25 142.208 326.875 139.208 326.875 136C326.875 130.75 325.875 126.625 323.875 123.625C321.875 120.583 319.042 118.417 315.375 117.125C311.708 115.833 307.375 115.188 302.375 115.188V106.75C308.083 106.75 312.417 105.958 315.375 104.375C318.333 102.792 320.333 100.75 321.375 98.25C322.417 95.7083 322.938 93.0417 322.938 90.25C322.938 87.9583 322.417 85.8125 321.375 83.8125C320.333 81.8125 318.771 80.1875 316.688 78.9375C314.646 77.6875 312.083 77.0625 309 77.0625C305.625 77.0625 302.417 77.8125 299.375 79.3125C296.333 80.8125 293.458 83.625 290.75 87.75L282.812 83C285.938 78.125 289.688 74.4792 294.062 72.0625C298.438 69.6042 303.271 68.375 308.562 68.375ZM132.188 79.5H98.75L94.7266 107.093C96.9909 105.929 99.3319 105.085 101.75 104.562C104.875 103.854 107.583 103.5 109.875 103.5C116.667 103.5 122.229 104.854 126.562 107.562C130.896 110.271 134.104 113.854 136.188 118.312C138.271 122.729 139.312 127.521 139.312 132.688C139.312 138.646 138.042 143.917 135.5 148.5C133 153.042 129.458 156.604 124.875 159.188C120.292 161.729 114.875 163 108.625 163C101.583 163 95.3333 161.396 89.875 158.188C84.4167 154.938 80.25 149.604 77.375 142.188L86.625 138.5C88.9167 143.542 91.9583 147.438 95.75 150.188C99.5417 152.938 103.646 154.312 108.062 154.312C112.021 154.312 115.5 153.438 118.5 151.688C121.542 149.896 123.917 147.417 125.625 144.25C127.375 141.083 128.25 137.396 128.25 133.188C128.25 129.521 127.542 126.125 126.125 123C124.708 119.833 122.583 117.292 119.75 115.375C116.958 113.417 113.5 112.438 109.375 112.438C105.958 112.438 102.604 113 99.3125 114.125C96.0625 115.208 92.9167 116.958 89.875 119.375L83 115L89 70H132.188V79.5ZM515.188 68.375C520.521 68.375 525.271 69.375 529.438 71.375C533.646 73.3333 536.938 76.3542 539.312 80.4375C541.729 84.5208 542.938 89.75 542.938 96.125C542.938 100.75 542.125 104.875 540.5 108.5C538.917 112.125 536.792 115.438 534.125 118.438C531.458 121.396 528.521 124.208 525.312 126.875C522.104 129.5 518.875 132.125 515.625 134.75C512.375 137.375 509.354 140.125 506.562 143C503.812 145.833 501.542 148.979 499.75 152.438H543.062V161.5H487.5C487.625 156.208 488.771 151.542 490.938 147.5C493.146 143.417 495.938 139.729 499.312 136.438C502.688 133.104 506.25 129.958 510 127C513.75 124 517.292 120.958 520.625 117.875C524 114.792 526.729 111.458 528.812 107.875C530.938 104.25 532 100.125 532 95.5C532 89.7917 530.521 85.3125 527.562 82.0625C524.604 78.7708 520.729 77.125 515.938 77.125C510.771 77.125 506.542 78.5625 503.25 81.4375C499.958 84.2708 497 88.4792 494.375 94.0625L484.75 90.1875C488.333 82.3542 492.542 76.7708 497.375 73.4375C502.208 70.0625 508.146 68.375 515.188 68.375Z" fill="white"/>
</svg>
