<svg width="197" height="130" viewBox="0 0 197 130" fill="none" xmlns="http://www.w3.org/2000/svg">
<path d="M113.193 51.3188C120.527 52.5501 127.675 54.7466 134.433 57.8452C146.08 74.8569 151.872 94.0645 149.736 116.227C141.869 122.034 133.057 126.446 123.67 129.278C121.554 126.446 119.684 123.429 118.082 120.29C121.143 119.14 124.08 117.746 126.895 116.083C126.155 115.591 125.436 115.037 124.737 114.462C108.222 122.219 89.1185 122.219 72.624 114.462C71.9258 114.996 71.2071 115.55 70.4678 116.083C73.2818 117.725 76.2197 119.14 79.2598 120.269C77.6576 123.409 75.7876 126.425 73.6719 129.257C64.2848 126.425 55.4726 121.993 47.6055 116.186C45.7978 97.0812 49.4334 77.7094 62.8672 57.8247C69.6457 54.7261 76.7947 52.5297 84.1279 51.2778C85.1344 53.0631 86.0583 54.9104 86.8594 56.7983C94.6854 55.6287 102.635 55.6287 110.44 56.7983C111.262 54.9104 112.166 53.0631 113.173 51.2778L113.193 51.3188ZM34.2061 11.7583C51.1714 0.450211 72.1758 -0.451294 90.5283 0.134277C93.1522 0.186099 95.7597 0.244464 98.3506 0.277832C99.0591 0.286871 99.768 0.29603 100.477 0.305176C102.367 0.272707 104.265 0.234452 106.173 0.196777C124.525 -0.388817 145.53 0.512885 162.495 11.8208C187.822 28.9967 203.169 61.2353 194.05 92.6362C193.108 95.4555 191.902 98.2104 190.423 100.838C189.645 102.227 188.35 103.241 186.812 103.653C186.329 103.782 185.835 103.849 185.34 103.854V112.839C185.34 116.029 182.851 118.636 179.71 118.827C179.457 123.571 175.531 127.339 170.724 127.339H166.724C161.753 127.339 157.724 123.31 157.724 118.339V76.3394C157.724 71.3691 161.753 67.3396 166.724 67.3394H170.724C175.694 67.3394 179.723 71.3689 179.724 76.3394V76.8521C182.047 76.9986 184.012 78.467 184.873 80.5142C188.084 58.3549 176.145 32.967 157.206 19.8579C142.917 9.79591 124.678 8.28015 106.23 8.396C103.621 8.38102 100.993 8.37359 98.3506 8.34033C97.3818 8.32801 96.4131 8.31542 95.4443 8.30322C93.7799 8.3151 92.1216 8.32402 90.4707 8.3335C72.0229 8.21767 53.7844 9.73323 39.4951 19.7954C20.5566 32.9045 8.61736 58.2925 11.8281 80.4517C12.6894 78.4046 14.6544 76.9364 16.9775 76.7896V76.2769C16.9777 71.3066 21.0073 67.2771 25.9775 67.2769H29.9775C34.948 67.2769 38.9774 71.3064 38.9775 76.2769V118.277C38.9775 123.247 34.9481 127.277 29.9775 127.277H25.9775C21.1706 127.277 17.2432 123.508 16.9902 118.764C13.8496 118.572 11.3613 115.966 11.3613 112.777V103.792C10.8668 103.786 10.3718 103.72 9.88867 103.59C8.35155 103.179 7.05611 102.164 6.27832 100.776C4.79928 98.148 3.5934 95.3929 2.65137 92.5737C-6.46781 61.1729 8.87965 28.9342 34.2061 11.7583ZM81.5391 83.8452C76.3218 83.8454 72.2755 88.462 72.2754 94.146C72.2754 99.8301 76.4861 104.427 81.5596 104.427C86.736 104.427 90.7421 99.8098 90.8242 94.146C90.9062 88.4824 86.7565 83.8452 81.5391 83.8452ZM115.781 83.8452C110.564 83.8454 106.518 88.462 106.518 94.146C106.518 99.8301 110.687 104.427 115.781 104.427C120.958 104.427 124.964 99.8098 125.046 94.146C125.128 88.4824 120.999 83.8452 115.781 83.8452Z" fill="white"/>
</svg>
