<svg width="1910" height="1641" viewBox="0 0 1910 1641" fill="none" xmlns="http://www.w3.org/2000/svg">
<path d="M1840 0C1878.66 1.28852e-05 1910 31.3401 1910 70V1571C1910 1609.66 1878.66 1641 1840 1641H70C31.3401 1641 5.41652e-07 1609.66 0 1571V70C0 31.3401 31.3401 1.34909e-06 70 0H1840ZM91 1371C52.3401 1371 21 1402.34 21 1441V1550C21 1588.66 52.3401 1620 91 1620H200C238.66 1620 270 1588.66 270 1550V1441C270 1402.34 238.66 1371 200 1371H91ZM361 1371C322.34 1371 291 1402.34 291 1441V1550C291 1588.66 322.34 1620 361 1620H470C508.66 1620 540 1588.66 540 1550V1441C540 1402.34 508.66 1371 470 1371H361ZM631 1371C592.34 1371 561 1402.34 561 1441V1550C561 1588.66 592.34 1620 631 1620H740C778.66 1620 810 1588.66 810 1550V1441C810 1402.34 778.66 1371 740 1371H631ZM901 1371C862.34 1371 831 1402.34 831 1441V1550C831 1588.66 862.34 1620 901 1620H1009C1047.66 1620 1079 1588.66 1079 1550V1441C1079 1402.34 1047.66 1371 1009 1371H901ZM1171 1371C1132.34 1371 1101 1402.34 1101 1441V1550C1101 1588.66 1132.34 1620 1171 1620H1279C1317.66 1620 1349 1588.66 1349 1550V1441C1349 1402.34 1317.66 1371 1279 1371H1171ZM1441 1371C1402.34 1371 1371 1402.34 1371 1441V1550C1371 1588.66 1402.34 1620 1441 1620H1549C1587.66 1620 1619 1588.66 1619 1550V1441C1619 1402.34 1587.66 1371 1549 1371H1441ZM1711 1371C1672.34 1371 1641 1402.34 1641 1441V1550C1641 1588.66 1672.34 1620 1711 1620H1819C1857.66 1620 1889 1588.66 1889 1550V1441C1889 1402.34 1857.66 1371 1819 1371H1711ZM413 1398C467.124 1398 511 1441.88 511 1496C511 1550.12 467.124 1594 413 1594C358.876 1594 315 1550.12 315 1496C315 1441.88 358.876 1398 413 1398ZM684 1398C738.124 1398 782 1441.88 782 1496C782 1550.12 738.124 1594 684 1594C629.876 1594 586 1550.12 586 1496C586 1441.88 629.876 1398 684 1398ZM955 1398C1009.12 1398 1053 1441.88 1053 1496C1053 1550.12 1009.12 1594 955 1594C954.833 1594 954.667 1594 954.5 1594C954.333 1594 954.167 1594 954 1594C899.876 1594 856 1550.12 856 1496C856 1441.88 899.876 1398 954 1398C954.167 1398 954.333 1398 954.5 1398C954.667 1398 954.833 1398 955 1398ZM1225 1398C1279.12 1398 1323 1441.88 1323 1496C1323 1550.12 1279.12 1594 1225 1594C1170.88 1594 1127 1550.12 1127 1496C1127 1441.88 1170.88 1398 1225 1398ZM1496 1398C1550.12 1398 1594 1441.88 1594 1496C1594 1550.12 1550.12 1594 1496 1594C1441.88 1594 1398 1550.12 1398 1496C1398 1441.88 1441.88 1398 1496 1398ZM1766 1398C1820.12 1398 1864 1441.88 1864 1496C1864 1550.12 1820.12 1594 1766 1594C1711.88 1594 1668 1550.12 1668 1496C1668 1441.88 1711.88 1398 1766 1398ZM684 1419C641.474 1419 607 1453.47 607 1496C607 1538.53 641.474 1573 684 1573C726.526 1573 761 1538.53 761 1496C761 1453.47 726.526 1419 684 1419ZM1225 1419C1182.47 1419 1148 1453.47 1148 1496C1148 1538.53 1182.47 1573 1225 1573C1267.53 1573 1302 1538.53 1302 1496C1302 1453.47 1267.53 1419 1225 1419ZM1766 1419C1723.47 1419 1689 1453.47 1689 1496C1689 1538.53 1723.47 1573 1766 1573C1808.53 1573 1843 1538.53 1843 1496C1843 1453.47 1808.53 1419 1766 1419ZM91 1101C52.3401 1101 21 1132.34 21 1171V1280C21 1318.66 52.3401 1350 91 1350H200C238.66 1350 270 1318.66 270 1280V1171C270 1132.34 238.66 1101 200 1101H91ZM361 1101C322.34 1101 291 1132.34 291 1171V1280C291 1318.66 322.34 1350 361 1350H470C508.66 1350 540 1318.66 540 1280V1171C540 1132.34 508.66 1101 470 1101H361ZM631 1101C592.34 1101 561 1132.34 561 1171V1280C561 1318.66 592.34 1350 631 1350H740C778.66 1350 810 1318.66 810 1280V1171C810 1132.34 778.66 1101 740 1101H631ZM901 1101C862.34 1101 831 1132.34 831 1171V1280C831 1318.66 862.34 1350 901 1350H1009C1047.66 1350 1079 1318.66 1079 1280V1171C1079 1132.34 1047.66 1101 1009 1101H901ZM1171 1101C1132.34 1101 1101 1132.34 1101 1171V1280C1101 1318.66 1132.34 1350 1171 1350H1279C1317.66 1350 1349 1318.66 1349 1280V1171C1349 1132.34 1317.66 1101 1279 1101H1171ZM1441 1101C1402.34 1101 1371 1132.34 1371 1171V1280C1371 1318.66 1402.34 1350 1441 1350H1549C1587.66 1350 1619 1318.66 1619 1280V1171C1619 1132.34 1587.66 1101 1549 1101H1441ZM1711 1101C1672.34 1101 1641 1132.34 1641 1171V1280C1641 1318.66 1672.34 1350 1711 1350H1819C1857.66 1350 1889 1318.66 1889 1280V1171C1889 1132.34 1857.66 1101 1819 1101H1711ZM684 1128C738.124 1128 782 1171.88 782 1226C782 1280.12 738.124 1324 684 1324C629.876 1324 586 1280.12 586 1226C586 1171.88 629.876 1128 684 1128ZM955 1128C1009.12 1128 1053 1171.88 1053 1226C1053 1280.12 1009.12 1324 955 1324C954.833 1324 954.667 1324 954.5 1324C954.333 1324 954.167 1324 954 1324C899.876 1324 856 1280.12 856 1226C856 1171.88 899.876 1128 954 1128C954.167 1128 954.333 1128 954.5 1128C954.667 1128 954.833 1128 955 1128ZM1225 1128C1279.12 1128 1323 1171.88 1323 1226C1323 1280.12 1279.12 1324 1225 1324C1170.88 1324 1127 1280.12 1127 1226C1127 1171.88 1170.88 1128 1225 1128ZM1225 1149C1182.47 1149 1148 1183.47 1148 1226C1148 1268.53 1182.47 1303 1225 1303C1267.53 1303 1302 1268.53 1302 1226C1302 1183.47 1267.53 1149 1225 1149ZM91 831C52.3401 831 21 862.34 21 901V1010C21 1048.66 52.3401 1080 91 1080H200C238.66 1080 270 1048.66 270 1010V901C270 862.34 238.66 831 200 831H91ZM361 831C322.34 831 291 862.34 291 901V1010C291 1048.66 322.34 1080 361 1080H470C508.66 1080 540 1048.66 540 1010V901C540 862.34 508.66 831 470 831H361ZM631 831C592.34 831 561 862.34 561 901V1010C561 1048.66 592.34 1080 631 1080H740C778.66 1080 810 1048.66 810 1010V901C810 862.34 778.66 831 740 831H631ZM901 831C862.34 831 831 862.34 831 901V1010C831 1048.66 862.34 1080 901 1080H1009C1047.66 1080 1079 1048.66 1079 1010V901C1079 862.34 1047.66 831 1009 831H901ZM1171 831C1132.34 831 1101 862.34 1101 901V1010C1101 1048.66 1132.34 1080 1171 1080H1279C1317.66 1080 1349 1048.66 1349 1010V901C1349 862.34 1317.66 831 1279 831H1171ZM1441 831C1402.34 831 1371 862.34 1371 901V1010C1371 1048.66 1402.34 1080 1441 1080H1549C1587.66 1080 1619 1048.66 1619 1010V901C1619 862.34 1587.66 831 1549 831H1441ZM1711 831C1672.34 831 1641 862.34 1641 901V1010C1641 1048.66 1672.34 1080 1711 1080H1819C1857.66 1080 1889 1048.66 1889 1010V901C1889 862.34 1857.66 831 1819 831H1711ZM684 858C738.124 858 782 901.876 782 956C782 1010.12 738.124 1054 684 1054C629.876 1054 586 1010.12 586 956C586 901.876 629.876 858 684 858ZM955 858C1009.12 858 1053 901.876 1053 956C1053 1010.12 1009.12 1054 955 1054C954.833 1054 954.667 1054 954.5 1054C954.333 1054 954.167 1054 954 1054C899.876 1054 856 1010.12 856 956C856 901.876 899.876 858 954 858C954.167 858 954.333 858.002 954.5 858.003C954.667 858.002 954.833 858 955 858ZM1225 858C1279.12 858 1323 901.876 1323 956C1323 1010.12 1279.12 1054 1225 1054C1170.88 1054 1127 1010.12 1127 956C1127 901.876 1170.88 858 1225 858ZM684 879C641.474 879 607 913.474 607 956C607 998.526 641.474 1033 684 1033C726.526 1033 761 998.526 761 956C761 913.474 726.526 879 684 879ZM1225 879C1182.47 879 1148 913.474 1148 956C1148 998.526 1182.47 1033 1225 1033C1267.53 1033 1302 998.526 1302 956C1302 913.474 1267.53 879 1225 879ZM91 561C52.3401 561 21 592.34 21 631V740C21 778.66 52.3401 810 91 810H200C238.66 810 270 778.66 270 740V631C270 592.34 238.66 561 200 561H91ZM361 561C322.34 561 291 592.34 291 631V740C291 778.66 322.34 810 361 810H470C508.66 810 540 778.66 540 740V631C540 592.34 508.66 561 470 561H361ZM631 561C592.34 561 561 592.34 561 631V740C561 778.66 592.34 810 631 810H740C778.66 810 810 778.66 810 740V631C810 592.34 778.66 561 740 561H631ZM901 561C862.34 561 831 592.34 831 631V740C831 778.66 862.34 810 901 810H1009C1047.66 810 1079 778.66 1079 740V631C1079 592.34 1047.66 561 1009 561H901ZM1171 561C1132.34 561 1101 592.34 1101 631V740C1101 778.66 1132.34 810 1171 810H1279C1317.66 810 1349 778.66 1349 740V631C1349 592.34 1317.66 561 1279 561H1171ZM1441 561C1402.34 561 1371 592.34 1371 631V740C1371 778.66 1402.34 810 1441 810H1549C1587.66 810 1619 778.66 1619 740V631C1619 592.34 1587.66 561 1549 561H1441ZM1711 561C1672.34 561 1641 592.34 1641 631V740C1641 778.66 1672.34 810 1711 810H1819C1857.66 810 1889 778.66 1889 740V631C1889 592.34 1857.66 561 1819 561H1711ZM955 589C1009.12 589 1053 632.876 1053 687C1053 741.124 1009.12 785 955 785C954.833 785 954.667 784.997 954.5 784.996C954.333 784.997 954.167 785 954 785C899.876 785 856 741.124 856 687C856 632.876 899.876 589 954 589C954.167 589 954.333 589.002 954.5 589.003C954.667 589.002 954.833 589 955 589ZM1225 589C1279.12 589 1323 632.876 1323 687C1323 741.124 1279.12 785 1225 785C1170.88 785 1127 741.124 1127 687C1127 632.876 1170.88 589 1225 589ZM954.5 610.003C912.204 610.272 878 644.641 878 687C878 729.359 912.204 763.727 954.5 763.996C996.796 763.727 1031 729.359 1031 687C1031 644.641 996.796 610.272 954.5 610.003ZM91 291C52.3401 291 21 322.34 21 361V470C21 508.66 52.3401 540 91 540H200C238.66 540 270 508.66 270 470V361C270 322.34 238.66 291 200 291H91ZM361 291C322.34 291 291 322.34 291 361V470C291 508.66 322.34 540 361 540H470C508.66 540 540 508.66 540 470V361C540 322.34 508.66 291 470 291H361ZM631 291C592.34 291 561 322.34 561 361V470C561 508.66 592.34 540 631 540H740C778.66 540 810 508.66 810 470V361C810 322.34 778.66 291 740 291H631ZM901 291C862.34 291 831 322.34 831 361V470C831 508.66 862.34 540 901 540H1009C1047.66 540 1079 508.66 1079 470V361C1079 322.34 1047.66 291 1009 291H901ZM1171 291C1132.34 291 1101 322.34 1101 361V470C1101 508.66 1132.34 540 1171 540H1279C1317.66 540 1349 508.66 1349 470V361C1349 322.34 1317.66 291 1279 291H1171ZM1441 291C1402.34 291 1371 322.34 1371 361V470C1371 508.66 1402.34 540 1441 540H1549C1587.66 540 1619 508.66 1619 470V361C1619 322.34 1587.66 291 1549 291H1441ZM1711 291C1672.34 291 1641 322.34 1641 361V470C1641 508.66 1672.34 540 1711 540H1819C1857.66 540 1889 508.66 1889 470V361C1889 322.34 1857.66 291 1819 291H1711ZM91 21C52.3401 21 21 52.3401 21 91V200C21 238.66 52.3401 270 91 270H200C238.66 270 270 238.66 270 200V91C270 52.3401 238.66 21 200 21H91ZM361 21C322.34 21 291 52.3401 291 91V200C291 238.66 322.34 270 361 270H470C508.66 270 540 238.66 540 200V91C540 52.3401 508.66 21 470 21H361ZM631 21C592.34 21 561 52.3401 561 91V200C561 238.66 592.34 270 631 270H740C778.66 270 810 238.66 810 200V91C810 52.3401 778.66 21 740 21H631ZM901 21C862.34 21 831 52.3401 831 91V200C831 238.66 862.34 270 901 270H1009C1047.66 270 1079 238.66 1079 200V91C1079 52.3401 1047.66 21 1009 21H901ZM1171 21C1132.34 21 1101 52.3401 1101 91V200C1101 238.66 1132.34 270 1171 270H1279C1317.66 270 1349 238.66 1349 200V91C1349 52.3401 1317.66 21 1279 21H1171ZM1441 21C1402.34 21 1371 52.3401 1371 91V200C1371 238.66 1402.34 270 1441 270H1549C1587.66 270 1619 238.66 1619 200V91C1619 52.3401 1587.66 21 1549 21H1441ZM1711 21C1672.34 21 1641 52.3401 1641 91V200C1641 238.66 1672.34 270 1711 270H1819C1857.66 270 1889 238.66 1889 200V91C1889 52.3401 1857.66 21 1819 21H1711Z" fill="black"/>
</svg>
