<svg width="633" height="633" viewBox="0 0 633 633" fill="none" xmlns="http://www.w3.org/2000/svg">
<path d="M617.5 0C625.784 5.6631e-08 632.5 6.71573 632.5 15V617.5C632.5 625.784 625.784 632.5 617.5 632.5H15C6.71573 632.5 2.52293e-06 625.784 0 617.5V15C5.30609e-08 6.71572 6.71574 2.72488e-06 15 0H617.5ZM20 612.5H204.167V536.672C168.91 533.286 131.356 527.885 101.207 519.214C90.029 515.999 80.7342 512.204 74.7275 507.145C71.5836 504.496 68.4565 500.763 67.2334 495.733C65.9356 490.396 67.2287 485.48 69.5029 481.615C73.4607 474.89 81.1372 470.006 88.4561 466.276C96.3834 462.237 106.498 458.307 118.073 454.462C140.798 446.914 170.726 439.198 204.167 431.434V428.333H20V612.5ZM319.435 430.931C286.685 437.826 254.144 444.695 224.167 451.474V514.334C230.615 514.848 236.95 515.302 243.108 515.697C255.698 516.506 267.467 517.077 277.838 517.481L272.389 513.989C266.809 510.413 265.184 502.991 268.76 497.411C272.336 491.831 279.758 490.206 285.338 493.782L326.8 520.353L342.565 530.456L326.8 540.56L285.338 567.13C279.758 570.706 272.336 569.081 268.76 563.501C265.184 557.921 266.809 550.499 272.389 546.923L280.687 541.604C269.254 541.189 255.942 540.572 241.57 539.648C235.931 539.286 230.113 538.875 224.167 538.411V612.5H408.333V428.333H331.759C327.651 429.198 323.541 430.066 319.435 430.931ZM428.333 612.5H612.5V428.333H428.333V612.5ZM204.167 456.077C173.488 463.278 146.352 470.358 125.638 477.238C114.566 480.916 105.738 484.407 99.3525 487.66C97.0097 488.854 95.1258 489.951 93.6494 490.936C96.5404 492.401 101.07 494.201 107.841 496.148C135.469 504.095 170.433 509.242 204.167 512.559V456.077ZM20 408.333H204.167V224.167H20V408.333ZM428.333 306.718C463.419 308.7 501.346 312.823 531.772 321.071C542.988 324.112 552.294 327.704 558.347 332.516C561.493 335.017 564.763 338.638 566.112 343.656C567.563 349.054 566.262 354.046 563.957 357.917C560.001 364.558 552.292 369.318 545.07 372.915C537.195 376.838 527.128 380.667 515.595 384.426C492.645 391.905 462.276 399.599 428.333 407.385V408.333H612.5V224.167H428.333V306.718ZM224.167 408.333H310.28C311.684 408.037 313.087 407.742 314.489 407.446C346.732 400.658 378.762 393.922 408.333 387.305V329.809C403.859 329.641 399.45 329.504 395.132 329.396C374.151 328.868 355.555 328.99 342.209 329.244C335.539 329.371 330.188 329.531 326.515 329.658C324.678 329.722 323.262 329.777 322.311 329.816C321.835 329.836 321.475 329.853 321.237 329.863C321.119 329.869 321.031 329.872 320.974 329.875C320.945 329.876 320.924 329.877 320.911 329.878C320.905 329.878 320.9 329.878 320.897 329.878C320.896 329.878 320.896 329.879 320.896 329.879V329.878C314.276 330.193 308.654 325.083 308.339 318.463C308.024 311.843 313.134 306.221 319.754 305.905L320.325 317.892C319.754 305.906 319.756 305.905 319.758 305.905C319.759 305.905 319.761 305.905 319.764 305.905C319.769 305.905 319.777 305.905 319.786 305.904C319.805 305.903 319.832 305.902 319.866 305.9C319.935 305.897 320.037 305.893 320.168 305.887C320.43 305.875 320.815 305.858 321.316 305.837C322.319 305.795 323.79 305.738 325.683 305.672C329.468 305.54 334.945 305.378 341.753 305.248C355.362 304.989 374.321 304.865 395.734 305.403C399.841 305.507 404.047 305.635 408.333 305.791V224.167H224.167V408.333ZM428.333 382.756C459.563 375.521 487.175 368.445 508.158 361.607C519.207 358.007 528.012 354.599 534.369 351.433C536.221 350.51 537.78 349.647 539.075 348.855C536.118 347.517 531.741 345.929 525.493 344.235C497.622 336.68 462.134 332.718 428.333 330.757V382.756ZM112.625 273.375C117.75 273.375 122.479 274.229 126.812 275.938C131.188 277.604 134.688 280.229 137.312 283.812C139.979 287.396 141.312 292.062 141.312 297.812C141.312 300.854 140.688 303.604 139.438 306.062C138.229 308.479 136.708 310.583 134.875 312.375C133.042 314.125 131.146 315.583 129.188 316.75C127.271 317.875 125.625 318.688 124.25 319.188C129.583 321.729 133.479 324.333 135.938 327C138.438 329.625 140.042 332.333 140.75 335.125C141.5 337.875 141.875 340.729 141.875 343.688C141.875 347.938 140.667 351.917 138.25 355.625C135.875 359.333 132.396 362.333 127.812 364.625C123.229 366.917 117.646 368.062 111.062 368.062C104.979 368.062 99.7708 366.958 95.4375 364.75C91.1458 362.5 87.8542 359.562 85.5625 355.938C83.2708 352.312 82.125 348.396 82.125 344.188C82.125 341.104 82.6667 338.146 83.75 335.312C84.8333 332.438 86.6042 329.688 89.0625 327.062C91.5625 324.438 94.9167 321.896 99.125 319.438C96.7917 318.312 94.375 316.75 91.875 314.75C89.4167 312.75 87.3333 310.333 85.625 307.5C83.9583 304.625 83.125 301.354 83.125 297.688C83.125 291.896 84.5417 287.229 87.375 283.688C90.25 280.104 93.9375 277.5 98.4375 275.875C102.938 274.208 107.667 273.375 112.625 273.375ZM106.812 322.625C102.229 325.458 98.9375 328.667 96.9375 332.25C94.9792 335.833 94 339.417 94 343C94 345.917 94.6875 348.604 96.0625 351.062C97.4375 353.521 99.4583 355.479 102.125 356.938C104.833 358.396 108.125 359.146 112 359.188C115.083 359.188 118.042 358.583 120.875 357.375C123.75 356.125 126.104 354.333 127.938 352C129.771 349.667 130.688 346.833 130.688 343.5C130.688 338.958 129.625 335.417 127.5 332.875C125.417 330.292 122.562 328.271 118.938 326.812C115.354 325.312 111.312 323.917 106.812 322.625ZM112.625 282.125C109.458 282.125 106.5 282.667 103.75 283.75C101 284.792 98.7708 286.438 97.0625 288.688C95.3542 290.938 94.5 293.875 94.5 297.5C94.5 301.458 95.4167 304.542 97.25 306.75C99.0833 308.958 101.625 310.729 104.875 312.062C108.125 313.396 111.875 314.75 116.125 316.125C118.083 315.125 120.125 313.854 122.25 312.312C124.417 310.771 126.25 308.812 127.75 306.438C129.292 304.021 130.062 301.104 130.062 297.688C130.062 294.229 129.312 291.354 127.812 289.062C126.312 286.771 124.25 285.042 121.625 283.875C119 282.708 116 282.125 112.625 282.125ZM20 204.167H204.167V20H20V204.167ZM224.167 204.167H408.333V20H224.167V204.167ZM428.333 204.167H612.5V20H428.333V204.167ZM312.562 72.375C320.354 72.375 326.479 74.3333 330.938 78.25C335.396 82.125 337.625 87.1667 337.625 93.375C337.625 96.2917 337.125 99.1458 336.125 101.938C335.167 104.729 333.583 107.229 331.375 109.438C329.208 111.646 326.271 113.312 322.562 114.438C327.312 115.604 331.104 117.521 333.938 120.188C336.812 122.854 338.875 125.938 340.125 129.438C341.417 132.938 342.062 136.542 342.062 140.25C342.062 144.667 340.979 148.917 338.812 153C336.646 157.083 333.417 160.458 329.125 163.125C324.833 165.75 319.542 167.062 313.25 167.062C308.958 167.062 304.875 166.375 301 165C297.125 163.583 293.75 161.312 290.875 158.188C288.042 155.062 285.979 150.917 284.688 145.75L294 142.625C295.667 147.625 297.979 151.479 300.938 154.188C303.896 156.854 307.854 158.188 312.812 158.188C317.021 158.188 320.458 157.354 323.125 155.688C325.792 153.979 327.75 151.75 329 149C330.25 146.208 330.875 143.208 330.875 140C330.875 134.75 329.875 130.625 327.875 127.625C325.875 124.583 323.042 122.417 319.375 121.125C315.708 119.833 311.375 119.188 306.375 119.188V110.75C312.083 110.75 316.417 109.958 319.375 108.375C322.333 106.792 324.333 104.75 325.375 102.25C326.417 99.7083 326.938 97.0417 326.938 94.25C326.938 91.9583 326.417 89.8125 325.375 87.8125C324.333 85.8125 322.771 84.1875 320.688 82.9375C318.646 81.6875 316.083 81.0625 313 81.0625C309.625 81.0625 306.417 81.8125 303.375 83.3125C300.333 84.8125 297.458 87.625 294.75 91.75L286.812 87C289.938 82.125 293.688 78.4792 298.062 76.0625C302.438 73.6042 307.271 72.375 312.562 72.375ZM136.188 83.5H102.75L98.7266 111.093C100.991 109.929 103.332 109.085 105.75 108.562C108.875 107.854 111.583 107.5 113.875 107.5C120.667 107.5 126.229 108.854 130.562 111.562C134.896 114.271 138.104 117.854 140.188 122.312C142.271 126.729 143.312 131.521 143.312 136.688C143.312 142.646 142.042 147.917 139.5 152.5C137 157.042 133.458 160.604 128.875 163.188C124.292 165.729 118.875 167 112.625 167C105.583 167 99.3333 165.396 93.875 162.188C88.4167 158.938 84.25 153.604 81.375 146.188L90.625 142.5C92.9167 147.542 95.9583 151.438 99.75 154.188C103.542 156.938 107.646 158.312 112.062 158.312C116.021 158.312 119.5 157.438 122.5 155.688C125.542 153.896 127.917 151.417 129.625 148.25C131.375 145.083 132.25 141.396 132.25 137.188C132.25 133.521 131.542 130.125 130.125 127C128.708 123.833 126.583 121.292 123.75 119.375C120.958 117.417 117.5 116.438 113.375 116.438C109.958 116.438 106.604 117 103.312 118.125C100.062 119.208 96.9167 120.958 93.875 123.375L87 119L93 74H136.188V83.5ZM519.188 72.375C524.521 72.375 529.271 73.375 533.438 75.375C537.646 77.3333 540.938 80.3542 543.312 84.4375C545.729 88.5208 546.938 93.75 546.938 100.125C546.938 104.75 546.125 108.875 544.5 112.5C542.917 116.125 540.792 119.438 538.125 122.438C535.458 125.396 532.521 128.208 529.312 130.875C526.104 133.5 522.875 136.125 519.625 138.75C516.375 141.375 513.354 144.125 510.562 147C507.812 149.833 505.542 152.979 503.75 156.438H547.062V165.5H491.5C491.625 160.208 492.771 155.542 494.938 151.5C497.146 147.417 499.938 143.729 503.312 140.438C506.688 137.104 510.25 133.958 514 131C517.75 128 521.292 124.958 524.625 121.875C528 118.792 530.729 115.458 532.812 111.875C534.938 108.25 536 104.125 536 99.5C536 93.7917 534.521 89.3125 531.562 86.0625C528.604 82.7708 524.729 81.125 519.938 81.125C514.771 81.125 510.542 82.5625 507.25 85.4375C503.958 88.2708 501 92.4792 498.375 98.0625L488.75 94.1875C492.333 86.3542 496.542 80.7708 501.375 77.4375C506.208 74.0625 512.146 72.375 519.188 72.375Z" fill="white"/>
</svg>
